<svg xmlns="http://www.w3.org/2000/svg" width="64" height="64" shape-rendering="crispEdges"><path fill="#395B64" d="M17 15h1v1h-1zM18 15h1v1h-1zM19 15h1v1h-1zM44 15h1v1h-1zM45 15h1v1h-1zM46 15h1v1h-1zM16 16h1v1h-1z"/><path fill="#2C3333" d="M17 16h1v1h-1zM18 16h1v1h-1z"/><path fill="#395B64" d="M19 16h1v1h-1zM44 16h1v1h-1z"/><path fill="#2C3333" d="M45 16h1v1h-1zM46 16h1v1h-1z"/><path fill="#395B64" d="M47 16h1v1h-1zM14 17h1v1h-1zM15 17h1v1h-1z"/><path fill="#2C3333" d="M16 17h1v1h-1zM17 17h1v1h-1zM18 17h1v1h-1zM45 17h1v1h-1zM46 17h1v1h-1zM47 17h1v1h-1z"/><path fill="#395B64" d="M48 17h1v1h-1zM49 17h1v1h-1zM13 18h1v1h-1z"/><path fill="#2C3333" d="M14 18h1v1h-1zM15 18h1v1h-1zM16 18h1v1h-1zM17 18h1v1h-1z"/><path fill="#A5C9CA" d="M18 18h1v1h-1zM45 18h1v1h-1z"/><path fill="#2C3333" d="M46 18h1v1h-1zM47 18h1v1h-1zM48 18h1v1h-1zM49 18h1v1h-1z"/><path fill="#395B64" d="M50 18h1v1h-1zM13 19h1v1h-1z"/><path fill="#2C3333" d="M14 19h1v1h-1zM15 19h1v1h-1zM16 19h1v1h-1z"/><path fill="#A5C9CA" d="M17 19h1v1h-1zM46 19h1v1h-1z"/><path fill="#2C3333" d="M47 19h1v1h-1zM48 19h1v1h-1zM49 19h1v1h-1z"/><path fill="#395B64" d="M50 19h1v1h-1zM12 20h1v1h-1z"/><path fill="#2C3333" d="M13 20h1v1h-1zM14 20h1v1h-1zM15 20h1v1h-1z"/><path fill="#A5C9CA" d="M16 20h1v1h-1z"/><path fill="#2C3333" d="M27 20h1v1h-1zM28 20h1v1h-1zM31 20h1v1h-1zM32 20h1v1h-1zM35 20h1v1h-1zM36 20h1v1h-1z"/><path fill="#A5C9CA" d="M47 20h1v1h-1z"/><path fill="#2C3333" d="M48 20h1v1h-1zM49 20h1v1h-1zM50 20h1v1h-1z"/><path fill="#395B64" d="M51 20h1v1h-1zM12 21h1v1h-1z"/><path fill="#2C3333" d="M13 21h1v1h-1zM14 21h1v1h-1zM15 21h1v1h-1z"/><path fill="#A5C9CA" d="M16 21h1v1h-1z"/><path fill="#2C3333" d="M27 21h1v1h-1zM28 21h1v1h-1zM31 21h1v1h-1zM32 21h1v1h-1zM35 21h1v1h-1zM36 21h1v1h-1z"/><path fill="#A5C9CA" d="M47 21h1v1h-1z"/><path fill="#2C3333" d="M48 21h1v1h-1zM49 21h1v1h-1zM50 21h1v1h-1z"/><path fill="#395B64" d="M51 21h1v1h-1zM12 22h1v1h-1z"/><path fill="#2C3333" d="M13 22h1v1h-1zM14 22h1v1h-1zM15 22h1v1h-1z"/><path fill="#A5C9CA" d="M16 22h1v1h-1z"/><path fill="#2C3333" d="M27 22h1v1h-1zM28 22h1v1h-1zM31 22h1v1h-1zM32 22h1v1h-1zM35 22h1v1h-1zM36 22h1v1h-1z"/><path fill="#A5C9CA" d="M47 22h1v1h-1z"/><path fill="#2C3333" d="M48 22h1v1h-1zM49 22h1v1h-1zM50 22h1v1h-1z"/><path fill="#395B64" d="M51 22h1v1h-1zM11 23h1v1h-1z"/><path fill="#2C3333" d="M12 23h1v1h-1zM13 23h1v1h-1zM14 23h1v1h-1z"/><path fill="#A5C9CA" d="M15 23h1v1h-1z"/><path fill="#2C3333" d="M27 23h1v1h-1zM28 23h1v1h-1zM31 23h1v1h-1zM32 23h1v1h-1zM35 23h1v1h-1zM36 23h1v1h-1z"/><path fill="#A5C9CA" d="M48 23h1v1h-1z"/><path fill="#2C3333" d="M49 23h1v1h-1zM50 23h1v1h-1zM51 23h1v1h-1z"/><path fill="#395B64" d="M52 23h1v1h-1zM11 24h1v1h-1z"/><path fill="#2C3333" d="M12 24h1v1h-1zM13 24h1v1h-1zM14 24h1v1h-1z"/><path fill="#A5C9CA" d="M15 24h1v1h-1z"/><path fill="#2C3333" d="M27 24h1v1h-1zM28 24h1v1h-1zM31 24h1v1h-1zM32 24h1v1h-1zM35 24h1v1h-1zM36 24h1v1h-1z"/><path fill="#A5C9CA" d="M48 24h1v1h-1z"/><path fill="#2C3333" d="M49 24h1v1h-1zM50 24h1v1h-1zM51 24h1v1h-1z"/><path fill="#395B64" d="M52 24h1v1h-1zM11 25h1v1h-1z"/><path fill="#2C3333" d="M12 25h1v1h-1zM13 25h1v1h-1zM14 25h1v1h-1z"/><path fill="#A5C9CA" d="M15 25h1v1h-1z"/><path fill="#395B64" d="M16 25h1v1h-1zM17 25h1v1h-1zM18 25h1v1h-1zM19 25h1v1h-1zM20 25h1v1h-1zM21 25h1v1h-1zM22 25h1v1h-1zM23 25h1v1h-1zM24 25h1v1h-1zM25 25h1v1h-1zM26 25h1v1h-1z"/><path fill="#2C3333" d="M27 25h1v1h-1zM28 25h1v1h-1z"/><path fill="#395B64" d="M29 25h1v1h-1zM30 25h1v1h-1z"/><path fill="#2C3333" d="M31 25h1v1h-1zM32 25h1v1h-1z"/><path fill="#395B64" d="M33 25h1v1h-1zM34 25h1v1h-1z"/><path fill="#2C3333" d="M35 25h1v1h-1zM36 25h1v1h-1z"/><path fill="#395B64" d="M37 25h1v1h-1zM38 25h1v1h-1zM39 25h1v1h-1zM40 25h1v1h-1zM41 25h1v1h-1zM42 25h1v1h-1zM43 25h1v1h-1zM44 25h1v1h-1zM45 25h1v1h-1zM46 25h1v1h-1zM47 25h1v1h-1z"/><path fill="#A5C9CA" d="M48 25h1v1h-1z"/><path fill="#2C3333" d="M49 25h1v1h-1zM50 25h1v1h-1zM51 25h1v1h-1z"/><path fill="#395B64" d="M52 25h1v1h-1zM11 26h1v1h-1z"/><path fill="#2C3333" d="M12 26h1v1h-1zM13 26h1v1h-1zM14 26h1v1h-1z"/><path fill="#A5C9CA" d="M15 26h1v1h-1z"/><path fill="#395B64" d="M16 26h1v1h-1zM17 26h1v1h-1zM18 26h1v1h-1zM19 26h1v1h-1zM20 26h1v1h-1zM21 26h1v1h-1zM22 26h1v1h-1zM23 26h1v1h-1zM24 26h1v1h-1zM25 26h1v1h-1zM26 26h1v1h-1z"/><path fill="#2C3333" d="M27 26h1v1h-1zM28 26h1v1h-1z"/><path fill="#395B64" d="M29 26h1v1h-1zM30 26h1v1h-1z"/><path fill="#2C3333" d="M31 26h1v1h-1zM32 26h1v1h-1z"/><path fill="#395B64" d="M33 26h1v1h-1zM34 26h1v1h-1z"/><path fill="#2C3333" d="M35 26h1v1h-1zM36 26h1v1h-1z"/><path fill="#395B64" d="M37 26h1v1h-1zM38 26h1v1h-1zM39 26h1v1h-1zM40 26h1v1h-1zM41 26h1v1h-1zM42 26h1v1h-1zM43 26h1v1h-1zM44 26h1v1h-1zM45 26h1v1h-1zM46 26h1v1h-1zM47 26h1v1h-1z"/><path fill="#A5C9CA" d="M48 26h1v1h-1z"/><path fill="#2C3333" d="M49 26h1v1h-1zM50 26h1v1h-1zM51 26h1v1h-1z"/><path fill="#395B64" d="M52 26h1v1h-1zM11 27h1v1h-1z"/><path fill="#2C3333" d="M12 27h1v1h-1zM13 27h1v1h-1zM14 27h1v1h-1z"/><path fill="#A5C9CA" d="M15 27h1v1h-1zM16 27h1v1h-1zM17 27h1v1h-1zM18 27h1v1h-1zM19 27h1v1h-1zM20 27h1v1h-1zM21 27h1v1h-1zM22 27h1v1h-1zM23 27h1v1h-1zM24 27h1v1h-1zM25 27h1v1h-1zM26 27h1v1h-1z"/><path fill="#2C3333" d="M27 27h1v1h-1zM28 27h1v1h-1z"/><path fill="#A5C9CA" d="M29 27h1v1h-1zM30 27h1v1h-1z"/><path fill="#2C3333" d="M31 27h1v1h-1zM32 27h1v1h-1z"/><path fill="#A5C9CA" d="M33 27h1v1h-1zM34 27h1v1h-1z"/><path fill="#2C3333" d="M35 27h1v1h-1zM36 27h1v1h-1z"/><path fill="#A5C9CA" d="M37 27h1v1h-1zM38 27h1v1h-1zM39 27h1v1h-1zM40 27h1v1h-1zM41 27h1v1h-1zM42 27h1v1h-1zM43 27h1v1h-1zM44 27h1v1h-1zM45 27h1v1h-1zM46 27h1v1h-1zM47 27h1v1h-1zM48 27h1v1h-1z"/><path fill="#2C3333" d="M49 27h1v1h-1zM50 27h1v1h-1zM51 27h1v1h-1z"/><path fill="#395B64" d="M52 27h1v1h-1zM11 28h1v1h-1z"/><path fill="#2C3333" d="M12 28h1v1h-1zM13 28h1v1h-1zM14 28h1v1h-1z"/><path fill="#A5C9CA" d="M15 28h1v1h-1zM16 28h1v1h-1zM17 28h1v1h-1zM18 28h1v1h-1zM19 28h1v1h-1zM20 28h1v1h-1zM21 28h1v1h-1zM22 28h1v1h-1zM23 28h1v1h-1zM24 28h1v1h-1zM25 28h1v1h-1zM26 28h1v1h-1z"/><path fill="#2C3333" d="M27 28h1v1h-1zM28 28h1v1h-1z"/><path fill="#A5C9CA" d="M29 28h1v1h-1zM30 28h1v1h-1z"/><path fill="#2C3333" d="M31 28h1v1h-1zM32 28h1v1h-1z"/><path fill="#A5C9CA" d="M33 28h1v1h-1zM34 28h1v1h-1z"/><path fill="#2C3333" d="M35 28h1v1h-1zM36 28h1v1h-1z"/><path fill="#A5C9CA" d="M37 28h1v1h-1zM38 28h1v1h-1zM39 28h1v1h-1zM40 28h1v1h-1zM41 28h1v1h-1zM42 28h1v1h-1zM43 28h1v1h-1zM44 28h1v1h-1zM45 28h1v1h-1zM46 28h1v1h-1zM47 28h1v1h-1zM48 28h1v1h-1z"/><path fill="#2C3333" d="M49 28h1v1h-1zM50 28h1v1h-1zM51 28h1v1h-1z"/><path fill="#395B64" d="M52 28h1v1h-1zM11 29h1v1h-1z"/><path fill="#2C3333" d="M12 29h1v1h-1zM13 29h1v1h-1zM14 29h1v1h-1z"/><path fill="#A5C9CA" d="M15 29h1v1h-1z"/><path fill="#E7F6F2" d="M16 29h1v1h-1zM17 29h1v1h-1zM18 29h1v1h-1zM19 29h1v1h-1zM20 29h1v1h-1zM21 29h1v1h-1zM22 29h1v1h-1zM23 29h1v1h-1zM24 29h1v1h-1zM25 29h1v1h-1zM26 29h1v1h-1z"/><path fill="#2C3333" d="M27 29h1v1h-1zM28 29h1v1h-1z"/><path fill="#E7F6F2" d="M29 29h1v1h-1zM30 29h1v1h-1z"/><path fill="#2C3333" d="M31 29h1v1h-1zM32 29h1v1h-1z"/><path fill="#E7F6F2" d="M33 29h1v1h-1zM34 29h1v1h-1z"/><path fill="#2C3333" d="M35 29h1v1h-1zM36 29h1v1h-1z"/><path fill="#E7F6F2" d="M37 29h1v1h-1zM38 29h1v1h-1zM39 29h1v1h-1zM40 29h1v1h-1zM41 29h1v1h-1zM42 29h1v1h-1zM43 29h1v1h-1zM44 29h1v1h-1zM45 29h1v1h-1zM46 29h1v1h-1zM47 29h1v1h-1z"/><path fill="#A5C9CA" d="M48 29h1v1h-1z"/><path fill="#2C3333" d="M49 29h1v1h-1zM50 29h1v1h-1zM51 29h1v1h-1z"/><path fill="#395B64" d="M52 29h1v1h-1zM11 30h1v1h-1z"/><path fill="#2C3333" d="M12 30h1v1h-1zM13 30h1v1h-1zM14 30h1v1h-1z"/><path fill="#A5C9CA" d="M15 30h1v1h-1z"/><path fill="#E7F6F2" d="M16 30h1v1h-1zM17 30h1v1h-1zM18 30h1v1h-1zM19 30h1v1h-1zM20 30h1v1h-1zM21 30h1v1h-1zM22 30h1v1h-1zM23 30h1v1h-1zM24 30h1v1h-1zM25 30h1v1h-1zM26 30h1v1h-1z"/><path fill="#2C3333" d="M27 30h1v1h-1zM28 30h1v1h-1z"/><path fill="#E7F6F2" d="M29 30h1v1h-1zM30 30h1v1h-1z"/><path fill="#2C3333" d="M31 30h1v1h-1zM32 30h1v1h-1z"/><path fill="#E7F6F2" d="M33 30h1v1h-1zM34 30h1v1h-1z"/><path fill="#2C3333" d="M35 30h1v1h-1zM36 30h1v1h-1z"/><path fill="#E7F6F2" d="M37 30h1v1h-1zM38 30h1v1h-1zM39 30h1v1h-1zM40 30h1v1h-1zM41 30h1v1h-1zM42 30h1v1h-1zM43 30h1v1h-1zM44 30h1v1h-1zM45 30h1v1h-1zM46 30h1v1h-1zM47 30h1v1h-1z"/><path fill="#A5C9CA" d="M48 30h1v1h-1z"/><path fill="#2C3333" d="M49 30h1v1h-1zM50 30h1v1h-1zM51 30h1v1h-1z"/><path fill="#395B64" d="M52 30h1v1h-1zM12 31h1v1h-1z"/><path fill="#2C3333" d="M13 31h1v1h-1zM14 31h1v1h-1zM15 31h1v1h-1z"/><path fill="#A5C9CA" d="M16 31h1v1h-1z"/><path fill="#2C3333" d="M27 31h1v1h-1zM28 31h1v1h-1zM31 31h1v1h-1zM32 31h1v1h-1zM35 31h1v1h-1zM36 31h1v1h-1z"/><path fill="#A5C9CA" d="M47 31h1v1h-1z"/><path fill="#2C3333" d="M48 31h1v1h-1zM49 31h1v1h-1zM50 31h1v1h-1z"/><path fill="#395B64" d="M51 31h1v1h-1zM12 32h1v1h-1z"/><path fill="#2C3333" d="M13 32h1v1h-1zM14 32h1v1h-1zM15 32h1v1h-1z"/><path fill="#A5C9CA" d="M16 32h1v1h-1z"/><path fill="#2C3333" d="M27 32h1v1h-1zM28 32h1v1h-1zM31 32h1v1h-1zM32 32h1v1h-1zM35 32h1v1h-1zM36 32h1v1h-1z"/><path fill="#A5C9CA" d="M47 32h1v1h-1z"/><path fill="#2C3333" d="M48 32h1v1h-1zM49 32h1v1h-1zM50 32h1v1h-1z"/><path fill="#395B64" d="M51 32h1v1h-1zM12 33h1v1h-1z"/><path fill="#2C3333" d="M13 33h1v1h-1zM14 33h1v1h-1zM15 33h1v1h-1z"/><path fill="#A5C9CA" d="M16 33h1v1h-1z"/><path fill="#2C3333" d="M27 33h1v1h-1zM28 33h1v1h-1zM31 33h1v1h-1zM32 33h1v1h-1zM35 33h1v1h-1zM36 33h1v1h-1z"/><path fill="#A5C9CA" d="M47 33h1v1h-1z"/><path fill="#2C3333" d="M48 33h1v1h-1zM49 33h1v1h-1zM50 33h1v1h-1z"/><path fill="#395B64" d="M51 33h1v1h-1zM13 34h1v1h-1z"/><path fill="#2C3333" d="M14 34h1v1h-1zM15 34h1v1h-1zM16 34h1v1h-1z"/><path fill="#A5C9CA" d="M17 34h1v1h-1z"/><path fill="#2C3333" d="M27 34h1v1h-1zM28 34h1v1h-1zM31 34h1v1h-1zM32 34h1v1h-1zM35 34h1v1h-1zM36 34h1v1h-1z"/><path fill="#A5C9CA" d="M46 34h1v1h-1z"/><path fill="#2C3333" d="M47 34h1v1h-1zM48 34h1v1h-1zM49 34h1v1h-1z"/><path fill="#395B64" d="M50 34h1v1h-1zM13 35h1v1h-1z"/><path fill="#2C3333" d="M14 35h1v1h-1zM15 35h1v1h-1zM16 35h1v1h-1z"/><path fill="#A5C9CA" d="M17 35h1v1h-1z"/><path fill="#2C3333" d="M27 35h1v1h-1zM28 35h1v1h-1zM31 35h1v1h-1zM32 35h1v1h-1zM35 35h1v1h-1zM36 35h1v1h-1z"/><path fill="#A5C9CA" d="M46 35h1v1h-1z"/><path fill="#2C3333" d="M47 35h1v1h-1zM48 35h1v1h-1zM49 35h1v1h-1z"/><path fill="#395B64" d="M50 35h1v1h-1zM14 36h1v1h-1z"/><path fill="#2C3333" d="M15 36h1v1h-1zM16 36h1v1h-1zM17 36h1v1h-1z"/><path fill="#A5C9CA" d="M18 36h1v1h-1z"/><path fill="#2C3333" d="M27 36h1v1h-1zM28 36h1v1h-1zM31 36h1v1h-1zM32 36h1v1h-1zM35 36h1v1h-1zM36 36h1v1h-1z"/><path fill="#A5C9CA" d="M45 36h1v1h-1z"/><path fill="#2C3333" d="M46 36h1v1h-1zM47 36h1v1h-1zM48 36h1v1h-1z"/><path fill="#395B64" d="M49 36h1v1h-1zM15 37h1v1h-1z"/><path fill="#2C3333" d="M16 37h1v1h-1zM17 37h1v1h-1zM18 37h1v1h-1z"/><path fill="#A5C9CA" d="M19 37h1v1h-1z"/><path fill="#2C3333" d="M27 37h1v1h-1zM28 37h1v1h-1zM31 37h1v1h-1zM32 37h1v1h-1zM35 37h1v1h-1zM36 37h1v1h-1z"/><path fill="#A5C9CA" d="M44 37h1v1h-1z"/><path fill="#2C3333" d="M45 37h1v1h-1zM46 37h1v1h-1zM47 37h1v1h-1z"/><path fill="#395B64" d="M48 37h1v1h-1zM15 38h1v1h-1z"/><path fill="#2C3333" d="M16 38h1v1h-1zM17 38h1v1h-1zM18 38h1v1h-1z"/><path fill="#A5C9CA" d="M19 38h1v1h-1z"/><path fill="#2C3333" d="M27 38h1v1h-1zM28 38h1v1h-1zM31 38h1v1h-1zM32 38h1v1h-1zM35 38h1v1h-1zM36 38h1v1h-1z"/><path fill="#A5C9CA" d="M44 38h1v1h-1z"/><path fill="#2C3333" d="M45 38h1v1h-1zM46 38h1v1h-1zM47 38h1v1h-1z"/><path fill="#395B64" d="M48 38h1v1h-1zM16 39h1v1h-1z"/><path fill="#2C3333" d="M17 39h1v1h-1zM18 39h1v1h-1zM19 39h1v1h-1z"/><path fill="#A5C9CA" d="M20 39h1v1h-1zM21 39h1v1h-1z"/><path fill="#2C3333" d="M27 39h1v1h-1zM28 39h1v1h-1zM31 39h1v1h-1zM32 39h1v1h-1zM35 39h1v1h-1zM36 39h1v1h-1z"/><path fill="#A5C9CA" d="M42 39h1v1h-1zM43 39h1v1h-1z"/><path fill="#2C3333" d="M44 39h1v1h-1zM45 39h1v1h-1zM46 39h1v1h-1z"/><path fill="#395B64" d="M47 39h1v1h-1zM17 40h1v1h-1z"/><path fill="#2C3333" d="M18 40h1v1h-1zM19 40h1v1h-1zM20 40h1v1h-1zM21 40h1v1h-1z"/><path fill="#A5C9CA" d="M22 40h1v1h-1z"/><path fill="#2C3333" d="M27 40h1v1h-1zM28 40h1v1h-1zM31 40h1v1h-1zM32 40h1v1h-1zM35 40h1v1h-1zM36 40h1v1h-1z"/><path fill="#A5C9CA" d="M41 40h1v1h-1z"/><path fill="#2C3333" d="M42 40h1v1h-1zM43 40h1v1h-1zM44 40h1v1h-1zM45 40h1v1h-1z"/><path fill="#395B64" d="M46 40h1v1h-1zM18 41h1v1h-1z"/><path fill="#2C3333" d="M19 41h1v1h-1zM20 41h1v1h-1zM21 41h1v1h-1zM22 41h1v1h-1z"/><path fill="#A5C9CA" d="M23 41h1v1h-1zM24 41h1v1h-1z"/><path fill="#2C3333" d="M27 41h1v1h-1zM28 41h1v1h-1zM31 41h1v1h-1zM32 41h1v1h-1zM35 41h1v1h-1zM36 41h1v1h-1z"/><path fill="#A5C9CA" d="M39 41h1v1h-1zM40 41h1v1h-1z"/><path fill="#2C3333" d="M41 41h1v1h-1zM42 41h1v1h-1zM43 41h1v1h-1zM44 41h1v1h-1z"/><path fill="#395B64" d="M45 41h1v1h-1zM19 42h1v1h-1z"/><path fill="#2C3333" d="M20 42h1v1h-1zM21 42h1v1h-1zM22 42h1v1h-1zM23 42h1v1h-1zM24 42h1v1h-1z"/><path fill="#A5C9CA" d="M25 42h1v1h-1zM26 42h1v1h-1z"/><path fill="#2C3333" d="M27 42h1v1h-1zM28 42h1v1h-1zM31 42h1v1h-1zM32 42h1v1h-1zM35 42h1v1h-1zM36 42h1v1h-1z"/><path fill="#A5C9CA" d="M37 42h1v1h-1zM38 42h1v1h-1z"/><path fill="#2C3333" d="M39 42h1v1h-1zM40 42h1v1h-1zM41 42h1v1h-1zM42 42h1v1h-1zM43 42h1v1h-1z"/><path fill="#395B64" d="M44 42h1v1h-1zM20 43h1v1h-1zM21 43h1v1h-1z"/><path fill="#2C3333" d="M22 43h1v1h-1zM23 43h1v1h-1zM24 43h1v1h-1zM25 43h1v1h-1zM26 43h1v1h-1zM27 43h1v1h-1zM28 43h1v1h-1z"/><path fill="#A5C9CA" d="M29 43h1v1h-1zM30 43h1v1h-1z"/><path fill="#2C3333" d="M31 43h1v1h-1zM32 43h1v1h-1z"/><path fill="#A5C9CA" d="M33 43h1v1h-1zM34 43h1v1h-1z"/><path fill="#2C3333" d="M35 43h1v1h-1zM36 43h1v1h-1zM37 43h1v1h-1zM38 43h1v1h-1zM39 43h1v1h-1zM40 43h1v1h-1zM41 43h1v1h-1z"/><path fill="#395B64" d="M42 43h1v1h-1zM43 43h1v1h-1zM22 44h1v1h-1z"/><path fill="#2C3333" d="M23 44h1v1h-1zM24 44h1v1h-1zM25 44h1v1h-1zM26 44h1v1h-1zM27 44h1v1h-1zM28 44h1v1h-1zM29 44h1v1h-1zM30 44h1v1h-1zM31 44h1v1h-1zM32 44h1v1h-1zM33 44h1v1h-1zM34 44h1v1h-1zM35 44h1v1h-1zM36 44h1v1h-1zM37 44h1v1h-1zM38 44h1v1h-1zM39 44h1v1h-1zM40 44h1v1h-1z"/><path fill="#395B64" d="M41 44h1v1h-1zM23 45h1v1h-1zM24 45h1v1h-1z"/><path fill="#2C3333" d="M25 45h1v1h-1zM26 45h1v1h-1zM27 45h1v1h-1zM28 45h1v1h-1zM29 45h1v1h-1zM30 45h1v1h-1zM31 45h1v1h-1zM32 45h1v1h-1zM33 45h1v1h-1zM34 45h1v1h-1zM35 45h1v1h-1zM36 45h1v1h-1zM37 45h1v1h-1zM38 45h1v1h-1z"/><path fill="#395B64" d="M39 45h1v1h-1zM40 45h1v1h-1zM25 46h1v1h-1zM26 46h1v1h-1zM27 46h1v1h-1z"/><path fill="#2C3333" d="M28 46h1v1h-1zM29 46h1v1h-1zM30 46h1v1h-1zM31 46h1v1h-1zM32 46h1v1h-1zM33 46h1v1h-1zM34 46h1v1h-1zM35 46h1v1h-1z"/><path fill="#395B64" d="M36 46h1v1h-1zM37 46h1v1h-1zM38 46h1v1h-1zM28 47h1v1h-1zM29 47h1v1h-1zM30 47h1v1h-1zM31 47h1v1h-1zM32 47h1v1h-1zM33 47h1v1h-1zM34 47h1v1h-1zM35 47h1v1h-1z"/></svg>